<?xml version="1.0" standalone="no"?>
<!DOCTYPE svg PUBLIC "-//W3C//DTD SVG 20010904//EN"
 "http://www.w3.org/TR/2001/REC-SVG-20010904/DTD/svg10.dtd">
<svg version="1.0" xmlns="http://www.w3.org/2000/svg"
 width="640.000000pt" height="640.000000pt" viewBox="0 0 640.000000 640.000000"
 preserveAspectRatio="xMidYMid meet">
<metadata>
Created by potrace 1.11, written by Peter Selinger 2001-2013
</metadata>
<g transform="translate(0.000000,640.000000) scale(0.100000,-0.100000)"
fill="#000000" stroke="none">
<path d="M2600 5747 c-23 -11 -71 -41 -95 -60 -5 -4 -58 -43 -117 -87 -59 -44
-116 -92 -125 -107 -12 -17 -18 -46 -18 -83 0 -54 4 -61 65 -146 35 -49 68
-90 72 -92 4 -2 8 -8 8 -14 0 -5 23 -40 51 -76 73 -98 233 -318 280 -387 23
-33 47 -65 54 -70 32 -26 26 -50 -41 -140 -36 -50 -73 -101 -82 -113 -9 -13
-28 -39 -42 -58 -14 -18 -36 -49 -50 -69 -14 -19 -50 -69 -80 -110 -30 -41
-93 -127 -140 -192 -47 -65 -88 -119 -92 -121 -5 -2 -8 -10 -8 -17 0 -7 -3
-15 -8 -17 -4 -1 -25 -28 -47 -58 -22 -30 -43 -59 -47 -65 -17 -22 -126 -173
-158 -219 -19 -27 -47 -65 -62 -85 -32 -41 -78 -107 -93 -130 -5 -8 -14 -20
-20 -26 -5 -7 -19 -24 -30 -40 -32 -44 -97 -133 -161 -221 -32 -45 -66 -92
-74 -104 -8 -12 -21 -28 -27 -36 -7 -7 -13 -15 -13 -19 0 -4 -6 -13 -12 -20
-23 -25 -33 -39 -68 -90 -19 -27 -40 -56 -47 -65 -6 -8 -53 -71 -102 -140 -49
-69 -95 -130 -100 -137 -6 -7 -11 -16 -11 -22 0 -5 -4 -11 -9 -13 -5 -1 -57
-70 -117 -153 -59 -82 -127 -177 -151 -210 -103 -140 -155 -211 -168 -230 -8
-11 -36 -50 -62 -86 -27 -37 -79 -110 -118 -164 -38 -53 -75 -102 -80 -108 -6
-7 -18 -25 -29 -41 -14 -23 -23 -27 -47 -24 -16 3 -29 2 -29 -1 0 -3 -25 -6
-55 -6 -30 0 -55 3 -55 7 0 4 -6 5 -13 3 -6 -2 -38 -6 -69 -8 -44 -4 -67 -11
-94 -32 -59 -45 -65 -71 -64 -294 1 -191 2 -200 25 -233 13 -19 36 -43 52 -54
27 -19 90 -19 3124 -19 l3096 0 36 28 c62 47 68 74 67 298 -1 189 -2 198 -25
231 -43 64 -78 77 -218 81 -37 1 -67 -2 -67 -6 0 -5 -5 -5 -11 -2 -6 4 -27 7
-46 7 -20 0 -41 5 -48 12 -12 12 -184 248 -200 274 -5 9 -20 27 -33 41 -12 15
-25 34 -28 44 -3 9 -9 17 -14 17 -5 0 -11 8 -14 18 -4 10 -14 27 -24 38 -9 10
-46 60 -82 109 -35 50 -68 95 -73 100 -17 21 -253 347 -262 363 -5 9 -12 19
-16 22 -3 3 -119 163 -258 355 -229 315 -305 420 -328 450 -5 6 -19 27 -33 47
-14 21 -28 38 -32 38 -5 0 -8 4 -8 9 0 6 -29 50 -65 98 -36 48 -73 99 -83 112
-9 13 -30 42 -47 66 -77 109 -160 220 -167 223 -4 2 -8 10 -8 18 0 8 -4 14
-10 14 -5 0 -10 7 -10 15 0 8 -4 15 -8 15 -4 0 -16 15 -27 33 -10 17 -27 41
-37 51 -10 11 -30 38 -45 60 -15 23 -59 84 -98 136 -39 52 -93 127 -120 165
-27 39 -53 75 -57 80 -38 48 -68 89 -68 94 0 3 -10 17 -22 31 -26 29 -108 145
-108 154 0 3 75 108 166 233 91 125 172 237 180 248 8 11 54 74 102 140 49 67
93 134 99 151 15 43 10 107 -11 138 -19 30 -262 214 -323 246 -78 40 -172 8
-224 -76 -11 -19 -26 -40 -32 -47 -7 -7 -28 -35 -47 -62 -19 -28 -39 -55 -45
-62 -5 -6 -66 -91 -135 -187 -69 -96 -127 -175 -130 -175 -3 0 -45 57 -95 126
-49 69 -96 132 -102 139 -7 7 -13 15 -13 18 0 5 -52 77 -85 118 -8 9 -22 29
-32 45 -9 15 -20 30 -23 33 -3 3 -17 21 -30 40 -65 97 -145 132 -220 97z m656
-2944 c26 -38 50 -70 53 -73 4 -3 17 -22 31 -42 14 -21 28 -38 33 -38 4 0 7
-5 7 -10 0 -12 110 -163 123 -168 4 -2 7 -10 7 -18 0 -8 5 -14 10 -14 6 0 10
-6 10 -14 0 -8 3 -16 8 -18 4 -1 35 -41 69 -88 34 -47 66 -89 71 -95 4 -5 27
-37 50 -70 32 -47 268 -372 536 -740 8 -11 33 -45 56 -75 36 -48 39 -55 23
-61 -10 -4 -22 -4 -27 -1 -9 5 -47 5 -174 0 -34 -2 -62 -1 -62 2 0 3 -26 4
-57 2 -32 -1 -76 -2 -98 -1 -22 0 -46 0 -52 0 -25 -2 -44 -2 -98 -1 -30 1 -59
-1 -64 -4 -5 -4 -12 -2 -15 2 -3 5 -26 6 -51 2 -25 -4 -45 -4 -45 -1 0 3 -26
5 -57 3 -32 -1 -76 -2 -98 -1 -22 0 -46 0 -52 0 -25 -2 -44 -2 -98 -1 -30 1
-59 -1 -64 -4 -5 -4 -12 -2 -15 2 -3 5 -26 6 -51 2 -25 -4 -45 -4 -45 -1 0 3
-26 5 -57 3 -32 -1 -76 -2 -98 -1 -22 0 -46 0 -52 0 -25 -2 -44 -2 -98 -1 -30
1 -59 -1 -64 -4 -5 -4 -12 -2 -15 2 -3 5 -26 6 -51 2 -25 -4 -45 -4 -45 -1 0
3 -26 5 -57 3 -32 -1 -76 -2 -98 -1 -22 0 -46 0 -52 0 -25 -2 -44 -2 -98 -1
-30 1 -59 -1 -64 -4 -5 -4 -12 -2 -15 2 -3 5 -25 6 -48 3 -24 -3 -72 -4 -107
-1 -58 4 -63 7 -50 20 8 8 31 40 51 70 20 30 46 65 57 77 12 12 21 27 21 33 0
5 5 10 10 10 6 0 10 4 10 10 0 9 85 127 101 140 3 3 8 10 10 16 2 6 14 24 27
40 12 16 55 74 94 129 40 55 76 102 80 103 4 2 8 10 8 18 0 8 6 17 14 20 8 3
19 18 26 34 7 16 18 31 26 34 8 3 14 12 14 20 0 8 4 16 8 18 4 2 40 48 80 103
39 55 82 113 94 129 13 16 25 34 27 40 2 6 7 13 11 16 3 3 57 75 118 160 208
288 255 350 263 350 4 0 29 -30 55 -67z"/>
</g>
</svg>
